HIERARCHY
ROOT Hip
{
	OFFSET -0.073976 0.235684 0.121419
	CHANNELS 6 Xposition Yposition Zposition Xrotation Yrotation Zrotation
	JOINT LowerSpine
	{
		OFFSET -0.000000 0.154443 0.259456
		CHANNELS 6 Xposition Yposition Zposition Xrotation Yrotation Zrotation
		JOINT MiddleSpine
		{
			OFFSET -0.000000 -0.011133 0.236774
			CHANNELS 3 Xrotation Yrotation Zrotation
			JOINT Chest
			{
				OFFSET -0.000000 0.058694 0.292979
				CHANNELS 3 Xrotation Yrotation Zrotation
				JOINT Neck
				{
					OFFSET -0.000000 0.012356 0.660220
					CHANNELS 6 Xposition Yposition Zposition Xrotation Yrotation Zrotation
					JOINT Head
					{
						OFFSET -0.000003 -0.101410 0.372834
						CHANNELS 3 Xrotation Yrotation Zrotation
						End Site
						{
							OFFSET 0.000000 -0.001598 0.053543
						}
					}
				}
				JOINT LClavicle
				{
					OFFSET 0.059990 -0.196462 0.637146
					CHANNELS 6 Xposition Yposition Zposition Xrotation Yrotation Zrotation
					JOINT LShoulder
					{
						OFFSET 0.350465 0.147877 0.091390
						CHANNELS 3 Xrotation Yrotation Zrotation
						JOINT LForearm
						{
							OFFSET 0.827173 0.007170 -0.002930
							CHANNELS 3 Xrotation Yrotation Zrotation
							JOINT LHand
							{
								OFFSET 0.690037 0.004134 0.002003
								CHANNELS 3 Xrotation Yrotation Zrotation
								JOINT LFinger1
								{
									OFFSET 0.267439 -0.074281 0.023389
									CHANNELS 6 Xposition Yposition Zposition Xrotation Yrotation Zrotation
									JOINT LFinger11
									{
										OFFSET 0.100035 -0.017626 -0.024394
										CHANNELS 3 Xrotation Yrotation Zrotation
										JOINT LFinger12
										{
											OFFSET 0.068292 -0.012037 -0.016657
											CHANNELS 3 Xrotation Yrotation Zrotation
											End Site
											{
												OFFSET 0.050720 -0.008226 -0.015140
											}
										}
									}
								}
								JOINT LFinger2
								{
									OFFSET 0.271429 -0.006467 0.027009
									CHANNELS 6 Xposition Yposition Zposition Xrotation Yrotation Zrotation
									JOINT LFinger21
									{
										OFFSET 0.123687 0.000731 0.000345
										CHANNELS 3 Xrotation Yrotation Zrotation
										JOINT LFinger22
										{
											OFFSET 0.068561 0.000417 0.000210
											CHANNELS 3 Xrotation Yrotation Zrotation
											End Site
											{
												OFFSET 0.053434 -0.000070 -0.003773
											}
										}
									}
								}
								JOINT LFinger3
								{
									OFFSET 0.257236 0.060858 0.018027
									CHANNELS 6 Xposition Yposition Zposition Xrotation Yrotation Zrotation
									JOINT LFinger31
									{
										OFFSET 0.112235 0.007028 -0.005681
										CHANNELS 3 Xrotation Yrotation Zrotation
										JOINT LFinger32
										{
											OFFSET 0.063958 0.004018 -0.003217
											CHANNELS 3 Xrotation Yrotation Zrotation
											End Site
											{
												OFFSET 0.053108 0.002511 -0.006529
											}
										}
									}
								}
								JOINT LFinger4
								{
									OFFSET 0.238705 0.105101 -0.018138
									CHANNELS 6 Xposition Yposition Zposition Xrotation Yrotation Zrotation
									JOINT LFinger41
									{
										OFFSET 0.069034 0.019057 -0.014397
										CHANNELS 3 Xrotation Yrotation Zrotation
										JOINT LFinger42
										{
											OFFSET 0.050624 0.013983 -0.010542
											CHANNELS 3 Xrotation Yrotation Zrotation
											End Site
											{
												OFFSET 0.050433 0.011572 -0.013857
											}
										}
									}
								}
								JOINT LFinger0
								{
									OFFSET 0.055325 -0.041941 -0.041874
									CHANNELS 6 Xposition Yposition Zposition Xrotation Yrotation Zrotation
									JOINT LFinger01
									{
										OFFSET 0.103004 -0.077658 -0.033827
										CHANNELS 3 Xrotation Yrotation Zrotation
										JOINT LFinger02
										{
											OFFSET 0.067827 -0.048865 -0.024270
											CHANNELS 3 Xrotation Yrotation Zrotation
											End Site
											{
												OFFSET 0.042515 -0.029114 -0.014636
											}
										}
									}
								}
							}
						}
					}
				}
				JOINT RClavicle
				{
					OFFSET -0.059990 -0.196459 0.637145
					CHANNELS 6 Xposition Yposition Zposition Xrotation Yrotation Zrotation
					JOINT RShoulder
					{
						OFFSET -0.350526 0.147901 0.091406
						CHANNELS 3 Xrotation Yrotation Zrotation
						JOINT RForearm
						{
							OFFSET -0.827173 0.007167 -0.002933
							CHANNELS 3 Xrotation Yrotation Zrotation
							JOINT RHand
							{
								OFFSET -0.690038 0.004132 0.002001
								CHANNELS 3 Xrotation Yrotation Zrotation
								JOINT RFinger1
								{
									OFFSET -0.267439 -0.074282 0.023391
									CHANNELS 6 Xposition Yposition Zposition Xrotation Yrotation Zrotation
									JOINT RFinger11
									{
										OFFSET -0.100035 -0.017626 -0.024394
										CHANNELS 3 Xrotation Yrotation Zrotation
										JOINT RFinger12
										{
											OFFSET -0.068292 -0.012037 -0.016660
											CHANNELS 3 Xrotation Yrotation Zrotation
											End Site
											{
												OFFSET -0.050720 -0.008226 -0.015141
											}
										}
									}
								}
								JOINT RFinger2
								{
									OFFSET -0.271429 -0.006468 0.027011
									CHANNELS 6 Xposition Yposition Zposition Xrotation Yrotation Zrotation
									JOINT RFinger21
									{
										OFFSET -0.123690 0.000731 0.000344
										CHANNELS 3 Xrotation Yrotation Zrotation
										JOINT RFinger22
										{
											OFFSET -0.068561 0.000420 0.000210
											CHANNELS 3 Xrotation Yrotation Zrotation
											End Site
											{
												OFFSET -0.053434 -0.000070 -0.003773
											}
										}
									}
								}
								JOINT RFinger3
								{
									OFFSET -0.257236 0.060857 0.018026
									CHANNELS 6 Xposition Yposition Zposition Xrotation Yrotation Zrotation
									JOINT RFinger31
									{
										OFFSET -0.112235 0.007028 -0.005682
										CHANNELS 3 Xrotation Yrotation Zrotation
										JOINT RFinger32
										{
											OFFSET -0.063958 0.004018 -0.003217
											CHANNELS 3 Xrotation Yrotation Zrotation
											End Site
											{
												OFFSET -0.053108 0.002511 -0.006529
											}
										}
									}
								}
								JOINT RFinger4
								{
									OFFSET -0.238706 0.105100 -0.018139
									CHANNELS 6 Xposition Yposition Zposition Xrotation Yrotation Zrotation
									JOINT RFinger41
									{
										OFFSET -0.069034 0.019057 -0.014395
										CHANNELS 3 Xrotation Yrotation Zrotation
										JOINT RFinger42
										{
											OFFSET -0.050624 0.013983 -0.010539
											CHANNELS 3 Xrotation Yrotation Zrotation
											End Site
											{
												OFFSET -0.050433 0.011572 -0.013857
											}
										}
									}
								}
								JOINT RFinger0
								{
									OFFSET -0.055325 -0.041938 -0.041871
									CHANNELS 6 Xposition Yposition Zposition Xrotation Yrotation Zrotation
									JOINT RFinger01
									{
										OFFSET -0.103004 -0.077661 -0.033833
										CHANNELS 3 Xrotation Yrotation Zrotation
										JOINT RFinger02
										{
											OFFSET -0.067824 -0.048866 -0.024268
											CHANNELS 3 Xrotation Yrotation Zrotation
											End Site
											{
												OFFSET -0.042515 -0.029114 -0.014636
											}
										}
									}
								}
							}
						}
					}
				}
			}
		}
	}
	JOINT RThigh
	{
		OFFSET -0.306771 0.025164 0.117281
		CHANNELS 6 Xposition Yposition Zposition Xrotation Yrotation Zrotation
		JOINT RShin
		{
			OFFSET -0.022210 -0.000000 -1.207231
			CHANNELS 3 Xrotation Yrotation Zrotation
			JOINT RFoot
			{
				OFFSET 0.000000 -0.000000 -1.185430
				CHANNELS 3 Xrotation Yrotation Zrotation
				JOINT RToe
				{
					OFFSET -0.000000 -0.272451 -0.130289
					CHANNELS 3 Xrotation Yrotation Zrotation
					End Site
					{
						OFFSET 0.000000 -0.053567 0.000000
					}
				}
			}
		}
	}
	JOINT LThigh
	{
		OFFSET 0.306765 0.025166 0.117289
		CHANNELS 6 Xposition Yposition Zposition Xrotation Yrotation Zrotation
		JOINT LShin
		{
			OFFSET 0.022212 -0.000000 -1.207240
			CHANNELS 3 Xrotation Yrotation Zrotation
			JOINT LFoot
			{
				OFFSET 0.000000 -0.000000 -1.185430
				CHANNELS 3 Xrotation Yrotation Zrotation
				JOINT LToe
				{
					OFFSET 0.000000 -0.272454 -0.130290
					CHANNELS 3 Xrotation Yrotation Zrotation
					End Site
					{
						OFFSET 0.000000 -0.053567 0.000000
					}
				}
			}
		}
	}
}
MOTION
Frames: 5
Frame Time: 0.041667
-0.070078 0.154619 2.345121 8.757009 0.616234 -0.000011 -0.000000 0.154443 0.259456 0.000000 0.000004 0.000001 -2.280219 0.804941 1.217712 -7.659609 2.494224 4.174253 0.000000 0.012357 0.660220 -7.362644 -1.238841 -0.426269 -5.110089 -2.709044 -0.202014 0.059990 -0.196462 0.637146 -0.052029 15.502055 -0.006456 61.438330 40.501919 -52.467560 0.051883 -0.001381 -17.441233 0.000002 0.000002 0.000002 0.267439 -0.074281 0.023389 0.000009 -0.000009 -0.000003 0.000006 -0.000009 0.000005 0.000004 0.000005 0.000004 0.271428 -0.006468 0.027010 0.000004 -0.000008 -0.000001 -0.000003 -0.000002 0.000004 0.000007 0.000000 -0.000005 0.257236 0.060858 0.018027 0.000011 -0.000002 0.000000 -0.000006 0.000001 0.000000 0.000003 -0.000002 0.000004 0.238706 0.105101 -0.018138 0.000002 0.000003 0.000001 -0.000004 0.000003 0.000008 0.000004 -0.000001 0.000013 0.055325 -0.041941 -0.041874 0.000003 -0.000009 -0.000012 0.000006 -0.000003 0.000025 0.000001 -0.000008 0.000015 -0.059990 -0.196459 0.637145 0.107551 -15.692401 0.162630 60.806210 -38.885537 65.322877 0.000003 -0.000000 -0.898359 0.000009 0.000009 0.000000 -0.267439 -0.074281 0.023392 0.000031 0.000050 -0.000008 -0.000022 -0.000038 0.000014 0.000005 0.000010 -0.000000 -0.271429 -0.006468 0.027012 0.000036 0.000071 -0.000012 0.000016 0.000011 0.000001 0.000003 0.000007 0.000001 -0.257235 0.060858 0.018027 0.000041 0.000074 -0.000016 0.000010 0.000001 0.000001 -0.000004 -0.000027 0.000010 -0.238705 0.105100 -0.018138 0.000036 0.000072 -0.000018 0.000022 -0.000015 0.000010 0.000007 0.000019 -0.000011 -0.055324 -0.041939 -0.041872 0.000018 0.000032 0.000002 -0.000003 0.000001 -0.000007 -0.000017 -0.000035 0.000006 -0.306281 0.031133 0.143989 -18.001923 0.505355 0.585829 10.916453 -0.000008 0.000001 -3.158013 -6.683941 8.625924 0.000006 0.000013 -0.000001 0.308702 0.043623 0.210201 -13.400835 1.870515 0.335265 5.863453 0.000008 -0.000006 0.233020 0.135263 -0.282411 -0.000005 0.000008 -0.000009 
-0.070078 0.154619 2.345121 8.757009 0.616234 -0.000011 -0.000000 0.154443 0.259456 0.000000 0.000004 0.000001 -2.280219 0.804941 1.217712 -7.659609 2.494224 4.174253 0.000000 0.012357 0.660220 -7.362644 -1.238841 -0.426269 -5.110089 -2.709044 -0.202014 0.059990 -0.196462 0.637146 -0.052029 15.502055 -0.006456 61.438330 40.501919 -52.467560 0.051883 -0.001381 -17.441233 0.000002 0.000002 0.000002 0.267439 -0.074281 0.023389 0.000009 -0.000009 -0.000003 0.000006 -0.000009 0.000005 0.000004 0.000005 0.000004 0.271428 -0.006468 0.027010 0.000004 -0.000008 -0.000001 -0.000003 -0.000002 0.000004 0.000007 0.000000 -0.000005 0.257236 0.060858 0.018027 0.000011 -0.000002 0.000000 -0.000006 0.000001 0.000000 0.000003 -0.000002 0.000004 0.238706 0.105101 -0.018138 0.000002 0.000003 0.000001 -0.000004 0.000003 0.000008 0.000004 -0.000001 0.000013 0.055325 -0.041941 -0.041874 0.000003 -0.000009 -0.000012 0.000006 -0.000003 0.000025 0.000001 -0.000008 0.000015 -0.059990 -0.196459 0.637145 0.107551 -15.692401 0.162630 60.806210 -38.885537 65.322877 0.000003 -0.000000 -0.898359 0.000009 0.000009 0.000000 -0.267439 -0.074281 0.023392 0.000031 0.000050 -0.000008 -0.000022 -0.000038 0.000014 0.000005 0.000010 -0.000000 -0.271429 -0.006468 0.027012 0.000036 0.000071 -0.000012 0.000016 0.000011 0.000001 0.000003 0.000007 0.000001 -0.257235 0.060858 0.018027 0.000041 0.000074 -0.000016 0.000010 0.000001 0.000001 -0.000004 -0.000027 0.000010 -0.238705 0.105100 -0.018138 0.000036 0.000072 -0.000018 0.000022 -0.000015 0.000010 0.000007 0.000019 -0.000011 -0.055324 -0.041939 -0.041872 0.000018 0.000032 0.000002 -0.000003 0.000001 -0.000007 -0.000017 -0.000035 0.000006 -0.306281 0.031133 0.143989 -18.001923 0.505355 0.585829 10.916453 -0.000008 0.000001 -3.158013 -6.683941 8.625924 0.000006 0.000013 -0.000001 0.308702 0.043623 0.210201 -13.400835 1.870515 0.335265 5.863453 0.000008 -0.000006 0.233020 0.135263 -0.282411 -0.000005 0.000008 -0.000009 
-0.064005 0.162313 2.346587 10.192589 -0.026268 -0.479793 -0.000000 0.154442 0.259456 -0.000001 0.000004 0.000001 -2.743574 0.897794 1.395746 -9.214371 2.723361 4.824704 -0.000000 0.012357 0.660221 -6.364797 -1.043318 -0.347255 -5.621875 -3.098344 -0.246569 0.059990 -0.196462 0.637145 -0.068456 15.243623 -0.008648 65.787269 34.533857 -54.595017 0.051624 -0.001001 -16.988740 -0.000001 0.000001 0.000003 0.267439 -0.074281 0.023389 -0.000001 -0.000011 -0.000001 0.000002 -0.000009 -0.000000 0.000005 0.000004 0.000004 0.271428 -0.006468 0.027010 0.000006 -0.000011 0.000000 -0.000000 0.000002 0.000001 -0.000001 -0.000001 -0.000001 0.257235 0.060858 0.018026 0.000003 -0.000003 0.000001 0.000000 0.000001 -0.000002 0.000007 -0.000000 0.000002 0.238705 0.105101 -0.018139 0.000006 0.000001 -0.000001 -0.000005 -0.000001 -0.000001 -0.000007 0.000000 0.000016 0.055325 -0.041941 -0.041874 0.000010 -0.000011 -0.000006 0.000006 -0.000002 0.000009 -0.000008 -0.000009 0.000011 -0.059990 -0.196459 0.637145 0.136144 -15.902004 0.205513 64.820749 -33.458406 67.045492 0.000062 -0.000016 -1.132695 0.000003 0.000007 -0.000000 -0.267440 -0.074281 0.023392 0.000035 0.000050 -0.000009 -0.000019 -0.000029 0.000008 0.000002 0.000011 -0.000005 -0.271429 -0.006468 0.027011 0.000038 0.000075 -0.000015 0.000021 0.000013 0.000000 -0.000009 0.000004 -0.000001 -0.257236 0.060858 0.018027 0.000044 0.000074 -0.000016 -0.000001 0.000001 0.000001 -0.000005 -0.000025 0.000005 -0.238706 0.105100 -0.018139 0.000032 0.000069 -0.000018 0.000026 -0.000015 0.000008 0.000023 0.000023 -0.000006 -0.055325 -0.041938 -0.041871 0.000020 0.000037 0.000009 -0.000003 0.000001 0.000001 -0.000020 -0.000032 0.000003 -0.306281 0.031133 0.143989 -20.404410 1.295813 0.611267 12.633614 -0.000010 0.000004 -3.521182 -6.713214 8.587921 0.000007 0.000013 -0.000004 0.308702 0.043623 0.210201 -14.825689 2.611871 0.418899 5.212276 0.000010 -0.000007 0.003775 -0.041909 0.088080 -0.000007 0.000008 -0.000009 
-0.061916 0.164738 2.347066 10.628252 -0.235175 -0.602982 -0.000000 0.154443 0.259456 -0.000002 0.000004 0.000001 -2.858337 0.928519 1.421600 -9.602417 2.805021 4.938145 -0.000000 0.012357 0.660220 -6.142553 -0.981191 -0.324550 -5.828498 -3.233630 -0.262960 0.059990 -0.196462 0.637145 -0.069142 15.133382 -0.008804 66.422825 33.055749 -54.556925 0.051691 -0.000786 -16.757160 -0.000001 0.000001 0.000004 0.267440 -0.074281 0.023389 0.000003 -0.000009 -0.000000 0.000005 -0.000009 0.000005 0.000005 0.000001 0.000004 0.271429 -0.006468 0.027010 0.000003 -0.000008 -0.000000 0.000008 0.000002 0.000002 -0.000002 0.000002 0.000001 0.257236 0.060858 0.018027 0.000009 0.000002 0.000002 0.000002 0.000003 0.000002 -0.000003 0.000000 0.000001 0.238706 0.105101 -0.018138 0.000002 -0.000000 0.000003 -0.000002 0.000001 0.000006 0.000006 -0.000001 0.000006 0.055326 -0.041941 -0.041874 0.000008 -0.000008 0.000006 0.000006 -0.000001 0.000005 -0.000000 -0.000001 0.000010 -0.059990 -0.196459 0.637145 0.142730 -15.952897 0.215385 65.736001 -32.039789 67.233787 0.000501 -0.000068 -0.830767 0.000001 0.000010 -0.000000 -0.267440 -0.074281 0.023391 0.000025 0.000051 -0.000008 -0.000020 -0.000030 0.000012 0.000005 0.000008 -0.000003 -0.271430 -0.006468 0.027011 0.000038 0.000074 -0.000014 0.000026 0.000018 0.000001 -0.000006 0.000003 -0.000000 -0.257236 0.060858 0.018027 0.000044 0.000074 -0.000016 -0.000003 -0.000002 0.000000 -0.000003 -0.000025 0.000008 -0.238707 0.105100 -0.018138 0.000032 0.000070 -0.000023 0.000028 -0.000012 0.000004 0.000014 0.000025 -0.000009 -0.055326 -0.041939 -0.041871 0.000020 0.000034 0.000010 -0.000003 -0.000004 -0.000010 -0.000028 -0.000034 0.000007 -0.306280 0.031133 0.143990 -21.211267 1.562364 0.467156 13.324138 -0.000011 0.000003 -3.918694 -6.730354 8.548982 0.000002 0.000014 -0.000002 0.308702 0.043623 0.210202 -15.358300 2.866866 0.420834 5.191077 0.000008 -0.000007 -0.005398 -0.151850 0.317492 -0.000007 0.000009 -0.000009 
-0.061673 0.165953 2.347450 10.735223 -0.298800 -0.664992 -0.000000 0.154443 0.259457 -0.000006 0.000004 0.000001 -2.844149 0.937299 1.393414 -9.569348 2.831528 4.882265 -0.000000 0.012357 0.660219 -6.109346 -0.913654 -0.302005 -6.016082 -3.327357 -0.275741 0.059990 -0.196462 0.637145 -0.064651 15.074733 -0.008282 65.812274 33.078596 -53.967937 0.051770 -0.000351 -16.283873 0.000005 0.000003 0.000004 0.267439 -0.074280 0.023389 0.000005 -0.000008 0.000004 0.000002 -0.000012 0.000004 -0.000008 0.000007 0.000001 0.271429 -0.006467 0.027009 0.000002 -0.000008 0.000001 -0.000006 -0.000001 0.000001 0.000005 0.000001 -0.000000 0.257235 0.060858 0.018027 0.000004 -0.000003 0.000003 -0.000008 0.000002 -0.000001 -0.000004 -0.000000 0.000004 0.238705 0.105101 -0.018138 0.000001 0.000000 -0.000001 0.000002 0.000001 0.000007 -0.000000 -0.000003 0.000005 0.055325 -0.041941 -0.041873 0.000003 -0.000009 0.000003 0.000003 -0.000002 0.000020 -0.000006 -0.000015 0.000011 -0.059990 -0.196459 0.637144 0.131420 -15.958308 0.198312 65.691769 -32.043030 67.030759 0.001726 -0.000236 -0.262308 0.000002 0.000011 0.000002 -0.267439 -0.074281 0.023391 0.000021 0.000049 -0.000006 -0.000022 -0.000032 0.000010 -0.000004 0.000012 -0.000001 -0.271429 -0.006468 0.027011 0.000031 0.000073 -0.000014 0.000023 0.000013 -0.000002 -0.000008 0.000002 -0.000002 -0.257236 0.060858 0.018027 0.000039 0.000073 -0.000017 0.000005 -0.000000 0.000001 -0.000015 -0.000030 0.000006 -0.238706 0.105100 -0.018138 0.000033 0.000065 -0.000024 0.000027 -0.000015 0.000010 0.000010 0.000025 -0.000008 -0.055324 -0.041939 -0.041872 0.000017 0.000029 -0.000000 -0.000000 -0.000009 -0.000010 -0.000032 -0.000034 -0.000001 -0.306280 0.031133 0.143990 -21.563812 1.645992 0.272830 13.767294 -0.000011 0.000003 -4.350320 -6.735256 8.509456 0.000004 0.000013 -0.000001 0.308702 0.043623 0.210202 -15.592089 2.945479 0.404089 5.349002 0.000009 -0.000005 0.274286 -0.217066 0.456300 -0.000004 0.000008 -0.000009 
